<svg width="255" height="85" viewBox="0 0 255 85" fill="none" xmlns="http://www.w3.org/2000/svg">
<path d="M23.04 58.24H58.048V61.44H40.256V74.432C44.0107 74.816 47.7867 74.9013 51.584 74.688C55.3813 74.4747 59.0293 73.9627 62.528 73.152V76.352C57.792 77.4613 52.8 78.016 47.552 78.016C42.3467 78.016 37.376 77.4613 32.64 76.352C27.904 75.2427 22.912 74.688 17.664 74.688C12.4587 74.688 7.488 75.2427 2.752 76.352V73.152C6.25067 72.3413 9.89867 71.8507 13.696 71.68C17.536 71.4667 21.3333 71.552 25.088 71.936V61.44H7.872V34.304H4.672V31.104H23.04V58.24ZM88.29 57.536C83.17 57.536 79.01 57.344 75.81 56.96C72.61 56.5333 70.114 55.936 68.322 55.168C66.5727 54.4 65.378 53.4827 64.738 52.416C64.1407 51.3067 63.842 50.0693 63.842 48.704C63.842 47.3387 64.1407 46.1227 64.738 45.056C65.378 43.9467 66.5727 43.008 68.322 42.24C70.114 41.472 72.61 40.896 75.81 40.512C79.01 40.0853 83.17 39.872 88.29 39.872C93.41 39.872 97.57 40.0853 100.77 40.512C103.97 40.896 106.445 41.472 108.194 42.24C109.986 43.008 111.181 43.9467 111.778 45.056C112.418 46.1227 112.738 47.3387 112.738 48.704C112.738 50.0693 112.418 51.3067 111.778 52.416C111.181 53.4827 109.986 54.4 108.194 55.168C106.445 55.936 103.97 56.5333 100.77 56.96C97.57 57.344 93.41 57.536 88.29 57.536ZM118.178 61.248V64.448H95.906V76.416H80.738V64.448H58.402V61.248H118.178ZM88.29 43.072C86.498 43.072 85.0047 43.2213 83.81 43.52C82.6153 43.8187 81.634 44.224 80.866 44.736C80.1407 45.248 79.6073 45.8453 79.266 46.528C78.9673 47.2107 78.818 47.936 78.818 48.704C78.818 49.472 78.9673 50.1973 79.266 50.88C79.6073 51.5627 80.1407 52.16 80.866 52.672C81.634 53.184 82.6153 53.5893 83.81 53.888C85.0047 54.1867 86.498 54.336 88.29 54.336C90.082 54.336 91.5753 54.1867 92.77 53.888C93.9647 53.5893 94.9247 53.184 95.65 52.672C96.418 52.16 96.9513 51.5627 97.25 50.88C97.5913 50.1973 97.762 49.472 97.762 48.704C97.762 47.936 97.5913 47.2107 97.25 46.528C96.9513 45.8453 96.418 45.248 95.65 44.736C94.9247 44.224 93.9647 43.8187 92.77 43.52C91.5753 43.2213 90.082 43.072 88.29 43.072ZM114.338 34.048V37.248H62.242V34.048H114.338ZM103.522 28.224V31.424H73.122V28.224H103.522ZM168.708 31.104V34.304H134.34V58.24H169.348V61.44H151.556V74.432C155.311 74.816 159.087 74.9013 162.884 74.688C166.681 74.4747 170.329 73.9627 173.828 73.152V76.352C169.092 77.4613 164.1 78.016 158.852 78.016C153.647 78.016 148.676 77.4613 143.94 76.352C139.204 75.2427 134.212 74.688 128.964 74.688C123.759 74.688 118.788 75.2427 114.052 76.352V73.152C117.551 72.3413 121.199 71.8507 124.996 71.68C128.836 71.4667 132.633 71.552 136.388 71.936V61.44H119.172V34.304H115.972V31.104H168.708Z" fill="#3674B5"/>
<path d="M176.092 32.2115C176.561 31.6416 177.351 31.6039 177.861 32.1271L183.822 38.2452C184.334 38.77 184.369 39.6608 183.902 40.2349L182.628 41.7987C182.101 42.4455 181.172 42.4097 180.647 41.761C180.076 41.0555 179.272 40.1276 178.286 39.16C177.193 38.088 175.848 37.1725 174.823 36.548C174.067 36.0869 173.86 34.9276 174.444 34.2174L176.092 32.2115Z" fill="#FFBC00"/>
<path d="M218.227 32.2115C218.695 31.6416 219.486 31.6039 219.996 32.1271L225.957 38.2452C226.468 38.77 226.504 39.6608 226.036 40.2349L224.762 41.7987C224.236 42.4455 223.307 42.4097 222.782 41.761C222.211 41.0555 221.407 40.1276 220.421 39.16C219.328 38.088 217.983 37.1725 216.958 36.548C216.201 36.0869 215.995 34.9276 216.578 34.2174L218.227 32.2115Z" fill="#FFBC00"/>
<path d="M187.154 50.2684C186.542 50.6102 185.798 50.3323 185.491 49.6466L183.749 45.7629C183.464 45.1268 183.692 44.3515 184.259 44.0313C184.891 43.6741 185.668 44.0339 185.949 44.7633C186.118 45.2045 186.333 45.7216 186.593 46.2735C186.876 46.875 187.238 47.4668 187.579 47.9721C188.086 48.722 187.905 49.8493 187.154 50.2684Z" fill="#FFBC00"/>
<path d="M229.289 50.2684C228.676 50.6102 227.933 50.3323 227.625 49.6466L225.884 45.7629C225.598 45.1268 225.826 44.3515 226.393 44.0313C227.025 43.6741 227.803 44.0339 228.083 44.7633C228.253 45.2045 228.467 45.7216 228.727 46.2735C229.011 46.875 229.372 47.4668 229.714 47.9721C230.221 48.722 230.039 49.8493 229.289 50.2684Z" fill="#FFBC00"/>
<path d="M172.052 47.2485C171.996 48.2453 172.852 48.9767 173.682 48.615C175.09 48.001 177.131 47.0337 178.966 45.8717C181.458 44.2933 184.163 41.8516 185.238 40.8475C185.543 40.5633 185.701 40.1314 185.673 39.6882L185.558 37.9186C185.483 36.7536 184.237 36.175 183.426 36.9077C182.279 37.9449 180.821 39.1815 179.611 39.9426C177.819 41.0711 174.594 42.3492 173.09 42.9192C172.6 43.1048 172.254 43.6028 172.222 44.1822L172.052 47.2485Z" fill="#FFBC00"/>
<path d="M214.186 47.2485C214.131 48.2453 214.987 48.9767 215.816 48.615C217.224 48.001 219.265 47.0337 221.1 45.8717C223.593 44.2933 226.297 41.8516 227.373 40.8475C227.677 40.5633 227.836 40.1314 227.807 39.6882L227.693 37.9186C227.617 36.7536 226.371 36.175 225.561 36.9077C224.414 37.9449 222.955 39.1815 221.746 39.9426C219.953 41.0711 216.728 42.3492 215.224 42.9192C214.734 43.1048 214.389 43.6028 214.357 44.1822L214.186 47.2485Z" fill="#FFBC00"/>
<path d="M172.052 36.4512C171.996 37.448 172.852 38.1794 173.682 37.8177C175.09 37.2037 177.131 36.2364 178.966 35.0744C181.458 33.496 184.163 31.0542 185.238 30.0501C185.543 29.7659 185.701 29.3341 185.673 28.8909L185.558 27.1213C185.483 25.9563 184.237 25.3777 183.426 26.1104C182.279 27.1475 180.821 28.3842 179.611 29.1453C177.819 30.2738 174.594 31.5519 173.09 32.1218C172.6 32.3075 172.254 32.8055 172.222 33.3849L172.052 36.4512Z" fill="#FFBC00"/>
<path d="M214.186 36.4512C214.131 37.448 214.987 38.1794 215.816 37.8177C217.224 37.2037 219.265 36.2364 221.1 35.0744C223.593 33.496 226.297 31.0542 227.373 30.0501C227.677 29.7659 227.836 29.3341 227.807 28.8909L227.693 27.1213C227.617 25.9563 226.371 25.3777 225.561 26.1104C224.414 27.1475 222.955 28.3842 221.746 29.1453C219.953 30.2738 216.728 31.5519 215.224 32.1218C214.734 32.3075 214.389 32.8055 214.357 33.3849L214.186 36.4512Z" fill="#FFBC00"/>
<path d="M210.939 25.5292C211.632 25.5292 212.194 26.1597 212.194 26.9375V49.8232C212.194 50.601 211.632 51.2315 210.939 51.2315H189.297C188.604 51.2315 188.042 50.601 188.042 49.8232V26.9375C188.042 26.1597 188.604 25.5292 189.297 25.5292H210.939ZM195.988 41.1383C195.295 41.1383 194.733 41.7689 194.733 42.5467V43.955C194.733 44.7328 195.295 45.3634 195.988 45.3634H204.352C205.045 45.3634 205.607 44.7328 205.607 43.955V42.5467C205.607 41.7689 205.045 41.1383 204.352 41.1383H195.988ZM195.988 31.7494C195.295 31.7494 194.733 32.3799 194.733 33.1577V34.5661C194.733 35.3439 195.295 35.9744 195.988 35.9744H204.352C205.045 35.9744 205.607 35.3439 205.607 34.5661V33.1577C205.607 32.3799 205.045 31.7494 204.352 31.7494H195.988Z" fill="#FFBC00"/>
<path d="M197.033 21.4802C197.661 20.8347 199.334 20.952 201.268 21.1868C203.202 21.4215 203.463 21.7736 203.829 22.243C204.195 22.7125 203.829 25.5292 203.829 25.5292H195.674C195.674 25.5292 196.406 22.1257 197.033 21.4802Z" fill="#FFBC00"/>
<path d="M172.777 54.8697C173.85 54.3223 220.829 54.7963 227.128 54.8623C227.57 54.867 227.928 55.1519 228 55.6413C228.094 56.2787 228.19 57.4023 228.19 59.3295C228.19 60.0751 228.19 60.6448 228.19 61.0793C228.19 61.8571 227.628 62.3809 226.935 62.3809H173.82C173.215 62.3809 172.698 61.8991 172.607 61.2285C172.337 59.2331 171.924 55.3053 172.777 54.8697Z" fill="#FFBC00"/>
<path d="M171.138 46.8852C171.401 46.6677 181.973 46.8208 185.097 46.8709C185.618 46.8793 186.02 47.2663 186.041 47.8512C186.05 48.1066 186.056 48.4263 186.056 48.8251C186.056 49.5833 185.508 50.1525 184.833 50.1525H172.256C171.619 50.1525 171.081 49.6161 171.037 48.9024C170.985 48.0418 170.964 47.0286 171.138 46.8852Z" fill="#FFBC00"/>
<path d="M213.272 46.8852C213.536 46.6677 224.108 46.8208 227.231 46.8709C227.753 46.8793 228.155 47.2663 228.175 47.8512C228.184 48.1066 228.19 48.4263 228.19 48.8251C228.19 49.5833 227.642 50.1525 226.967 50.1525H214.39C213.753 50.1525 213.215 49.6161 213.172 48.9024C213.12 48.0418 213.098 47.0286 213.272 46.8852Z" fill="#FFBC00"/>
<path d="M203.495 49.5152C203.983 50.1072 203.55 75.0216 203.5 77.8474C203.496 78.0265 203.464 78.1933 203.366 78.3352C203.057 78.7864 202.099 79.7505 199.562 79.7505C197.118 79.7505 196.815 78.8564 196.825 78.3873C196.828 78.1983 196.871 78.01 196.871 77.821V50.8006C196.871 50.0725 197.364 49.4653 198.01 49.4122C199.804 49.2652 203.119 49.0601 203.495 49.5152Z" fill="#FFBC00"/>
<path d="M171.993 72.7088C172.986 71.3591 179.991 70.5963 184.749 67.2515C189.506 63.9066 188.983 64.4348 191.283 61.6181C193.583 58.8014 194.035 56.2781 194.035 56.2781L199.438 65.0802C199.438 65.0802 192.119 71.007 186.787 74.8213C181.455 78.6356 176.123 80.396 175.391 79.8679C174.659 79.3397 171 74.0585 171.993 72.7088Z" fill="#FFBC00"/>
<path d="M229.027 72.7491C228.034 71.3995 221.029 70.6366 216.272 67.2918C211.514 63.947 212.037 64.4751 209.737 61.6584C207.437 58.8417 206.985 56.3184 206.985 56.3184L201.582 65.1206C201.582 65.1206 208.901 71.0474 214.233 74.8617C219.565 78.6759 224.897 80.4364 225.629 79.9082C226.361 79.3801 230.02 74.0988 229.027 72.7491Z" fill="#FFBC00"/>
</svg>
