<svg xmlns="http://www.w3.org/2000/svg" width="722" height="722" overflow="hidden"><defs><clipPath id="a"><path d="M-1-1h722v722H-1z"/></clipPath></defs><g fill-rule="evenodd" clip-path="url(#a)" transform="translate(1 1)"><path fill="#FFF" d="M720 360.049C720 558.784 558.762 720 360 720 161.238 719.902 0 558.784 0 360.049 0 161.118 161.238 0 360 0c198.86 0 360 161.118 360 360.049"/><path fill="#E4032E" d="M685.033 259.557C665.175 193.021 572.144 62 405.158 62 247.563 62 138 180.71 138 287.208c0 19.736 1.174 28.627 6.065 47.19a98.471 98.471 0 0 1-3.032-24.23c0-110.992 111.226-187.885 225.68-187.885 154.856 0 280.364 125.354 280.364 280.02 0 121.25-69.846 226.184-171.29 276.599V679C606.578 631.614 700 506.455 700 359.508c0-34.782-4.695-65.461-14.967-99.951"/><path fill="#003764" d="M529.428 334.603c-57.32-38.898-130.78-23.065-169.32 35.477-32.084 48.866-80.699 55.024-99.479 55.024-61.331 0-103.295-43.101-115.717-87.667a6.324 6.324 0 0 1-.392-1.27 11.924 11.924 0 0 0-.391-1.564c-4.891-18.569-6.065-27.463-6.065-47.205 0-106.627 109.457-225.275 267.137-225.275 161.495 0 253.932 122.753 277.799 191.068-.489-1.27-.88-2.443-1.174-3.616C635.853 115.974 509.18 20 359.912 20 172.202 20 20 172.073 20 359.72 20 527.43 141.097 671 308.95 671c133.911 0 224-75.059 265.18-178.461 22.694-56.587 6.652-123.045-44.702-157.936"/></g></svg>